<?xml version="1.0" encoding="UTF-8"?>
<svg id="Ebene_1" xmlns="http://www.w3.org/2000/svg" version="1.1" viewBox="0 0 800 296.67">
  <!-- Generator: Adobe Illustrator 29.8.6, SVG Export Plug-In . SVG Version: 2.1.1 Build 1)  -->
  <defs>
    <style>
      .st0 {
        font-family: TheSans-Regular, TheSans;
        font-size: 32.29px;
      }

      .st0, .st1 {
        fill: #0071bc;
      }
    </style>
  </defs>
  <g>
    <path class="st1" d="M651.31,120.74c5.15,5.42,58.95,14.73,72.46,20.14,47.31,18.97,62.34,74.88,25.55,111.26-32.29,31.92-130.98,32.05-160.85-.99-19.02-21.03.03-47.2,27.8-42.82,16.5,2.61,32.8,12.83,52.2,13,26.73.23,37.29-22.34,6.67-33.49-29.97-10.91-83.91-13.75-89.2-54.31-9.63-73.77,76.84-99.44,135.09-86.69,23.11,5.06,45.19,25.83,24.19,47.67-23.98,24.94-63.53-5.07-88.27,8.52-6.07,3.33-11.21,11.84-5.63,17.71Z"/>
    <path class="st1" d="M470.65,245.48c-3.91,19.48-40.28,19.52-44.67-2.05V89c2.31-7.48,8.05-13.67,15.56-16.15,9.65-3.18,53.29-6.8,64.97-6.9,29.33-.23,58.77,16.78,62.42,47.87,4.08,34.72-11.38,57.69-43.17,69.91,14.19,18.44,35.09,31.86,45.9,52.51,6.2,23.98-20.36,34.75-39.93,26.6-12.75-5.31-45.6-54.26-57.24-67.81-1.03-1.2.08-3.13-3.83-2.12-2.12,15.26,2.85,38.34,0,52.57ZM470.65,116.99v28.37l2.5,2.5h28.37c2.92,0,12.3-7.95,13.43-11.59,8.14-26.26-24.7-25.66-41.49-21.47l-2.81,2.19Z"/>
    <path class="st1" d="M352.17,121.16v25.03c14.6,2.6,31.97-6.42,44.99,2.57,11.19,7.73,9.08,31.06-3.7,36.21-11.59,4.68-30.45-2.83-41.29,3.77v24.2h40.88c15.39,0,24.82,35.05,4.24,40.95-8.3,2.38-59.74-.41-68.95-2.94-5.14-1.41-9.72-6.62-12.14-11.22.08-10.72-2.04-22.21-2.48-32.56-1.23-28.94-2.53-72.08,0-100.26.9-10.06,4.76-19.93,15.06-23.32,9.1-2.99,56.52-7.19,65.85-5.72,15.86,2.5,17.17,27.71,5.12,36.63-10.89,8.06-34.04,4.85-47.57,6.66Z"/>
    <path class="st1" d="M163.6,152.87h29.2c7.12,0,13.14,29.62-2.03,33.02-6.09,1.36-22.32-1.21-25.61,1.09l-1.57,20.97c17.73-.16,44.94-2.09,39.67,23.81-2.96,14.56-18.63,11.66-30.56,11.31-4.55-.14-21.58-1.2-24.61-2.09-3.06-.9-8.45-7.66-9.17-10.85l.04-117.74c1.02-5.68,4.24-9.84,9.53-12.16,20.13.23,61.51-17.15,53.13,19.77-4.08,17.97-33.76,7.68-37.3,12.76l-.73,20.13Z"/>
    <path class="st1" d="M272.07,126.17v112.64c0,12.19-31.71,12.19-31.71,0v-110.97c-6.41-.77-14.75,1.12-20.82-.04-11.18-2.13-14.86-30.46,5.1-34.88,12.94-2.87,50.11-6.62,63.46-6.63,24.01-.01,21.74,32.48,5.76,37.47-6.27,1.95-14.97-.04-21.79,2.41Z"/>
    <path class="st1" d="M91.52,104.95c2.61-.1,4.61-.57,7.61-.34,35.76,2.69,38.3,68.51,13.57,86.63-11.11,8.14-18.58,2.83-30.13,6.58-3.58,9.94,4.61,34.27-6.17,38.89-8.68,3.72-15.21-.36-16.29-9.55-2.28-19.53-2.75-88.07.14-106.72,2.34-15.08,18.95-15.01,31.27-15.48ZM81.83,166.22c20.33,4.85,28.74-14.77,16.69-29.21l-16.69-.83v30.04Z"/>
  </g>
  <text class="st0" transform="translate(54.12 54.6)"><tspan x="0" y="0">Spenglermeisterbetrieb</tspan></text>
</svg>